<svg width="260" height="229" viewBox="0 0 260 229" fill="none" xmlns="http://www.w3.org/2000/svg">
<mask id="path-1-inside-1_103_129" fill="white">
<path fill-rule="evenodd" clip-rule="evenodd" d="M120.691 186.778C132.407 198.494 151.402 198.494 163.118 186.778L238.778 111.118C250.494 99.402 250.494 80.4071 238.778 68.6913L232.596 62.5086C220.88 50.7929 201.885 50.7929 190.169 62.5086L149.756 102.922C138.073 114.605 119.131 114.605 107.448 102.922L104.974 100.448C97.4973 92.9714 86.1207 91.0158 76.576 95.567C61.0171 102.986 57.4795 123.566 69.6681 135.755L120.691 186.778Z"/>
</mask>
<path fill-rule="evenodd" clip-rule="evenodd" d="M120.691 186.778C132.407 198.494 151.402 198.494 163.118 186.778L238.778 111.118C250.494 99.402 250.494 80.4071 238.778 68.6913L232.596 62.5086C220.88 50.7929 201.885 50.7929 190.169 62.5086L149.756 102.922C138.073 114.605 119.131 114.605 107.448 102.922L104.974 100.448C97.4973 92.9714 86.1207 91.0158 76.576 95.567C61.0171 102.986 57.4795 123.566 69.6681 135.755L120.691 186.778Z" fill="url(#paint0_linear_103_129)"/>
<path d="M120.691 186.778L124.227 183.243L120.691 186.778ZM235.243 107.582L159.582 183.243L166.653 190.314L242.314 114.653L235.243 107.582ZM229.06 66.0441L235.243 72.2269L242.314 65.1558L236.131 58.9731L229.06 66.0441ZM186.634 58.9731L146.22 99.3866L153.291 106.458L193.705 66.0441L186.634 58.9731ZM110.984 99.3866L108.51 96.9129L101.439 103.984L103.913 106.458L110.984 99.3866ZM124.227 183.243L73.2036 132.219L66.1325 139.29L117.156 190.314L124.227 183.243ZM74.424 91.0539C55.749 99.9587 51.5029 124.661 66.1325 139.29L73.2036 132.219C63.4561 122.472 66.2852 106.013 78.728 100.08L74.424 91.0539ZM108.51 96.9129C99.5353 87.9383 85.8802 85.5911 74.424 91.0539L78.728 100.08C86.3611 96.4405 95.4593 98.0044 101.439 103.984L108.51 96.9129ZM146.22 99.3866C136.49 109.117 120.714 109.117 110.984 99.3866L103.913 106.458C117.548 120.093 139.656 120.093 153.291 106.458L146.22 99.3866ZM236.131 58.9731C222.463 45.3047 200.302 45.3047 186.634 58.9731L193.705 66.0441C203.468 56.281 219.297 56.281 229.06 66.0441L236.131 58.9731ZM159.582 183.243C149.819 193.006 133.99 193.006 124.227 183.243L117.156 190.314C130.824 203.982 152.985 203.982 166.653 190.314L159.582 183.243ZM242.314 114.653C255.982 100.985 255.982 78.8241 242.314 65.1558L235.243 72.2269C245.006 81.99 245.006 97.8191 235.243 107.582L242.314 114.653Z" fill="white" mask="url(#path-1-inside-1_103_129)"/>
<mask id="path-3-inside-2_103_129" fill="white">
<path fill-rule="evenodd" clip-rule="evenodd" d="M120.691 186.778C132.407 198.494 151.402 198.494 163.118 186.778L238.778 111.118C250.494 99.402 250.494 80.4071 238.778 68.6913L232.596 62.5086C220.88 50.7929 201.885 50.7929 190.169 62.5086L149.756 102.922C138.073 114.605 119.131 114.605 107.448 102.922L104.974 100.448C97.4973 92.9714 86.1207 91.0158 76.576 95.567C61.0171 102.986 57.4795 123.566 69.6681 135.755L120.691 186.778Z"/>
</mask>
<path fill-rule="evenodd" clip-rule="evenodd" d="M120.691 186.778C132.407 198.494 151.402 198.494 163.118 186.778L238.778 111.118C250.494 99.402 250.494 80.4071 238.778 68.6913L232.596 62.5086C220.88 50.7929 201.885 50.7929 190.169 62.5086L149.756 102.922C138.073 114.605 119.131 114.605 107.448 102.922L104.974 100.448C97.4973 92.9714 86.1207 91.0158 76.576 95.567C61.0171 102.986 57.4795 123.566 69.6681 135.755L120.691 186.778Z" fill="url(#paint1_linear_103_129)"/>
<path d="M149.756 102.922L146.22 99.3866L149.756 102.922ZM120.691 186.778L124.227 183.243L120.691 186.778ZM235.243 107.582L159.582 183.243L166.653 190.314L242.314 114.653L235.243 107.582ZM229.06 66.0441L235.243 72.2269L242.314 65.1558L236.131 58.9731L229.06 66.0441ZM186.634 58.9731L146.22 99.3866L153.291 106.458L193.705 66.0441L186.634 58.9731ZM110.984 99.3866L108.51 96.9129L101.439 103.984L103.913 106.458L110.984 99.3866ZM124.227 183.243L73.2036 132.219L66.1326 139.29L117.156 190.314L124.227 183.243ZM74.424 91.0539C55.7489 99.9587 51.5029 124.661 66.1326 139.29L73.2036 132.219C63.4562 122.472 66.2852 106.013 78.728 100.08L74.424 91.0539ZM108.51 96.9129C99.5353 87.9383 85.8802 85.5911 74.424 91.0539L78.728 100.08C86.3611 96.4405 95.4593 98.0044 101.439 103.984L108.51 96.9129ZM146.22 99.3866C136.49 109.117 120.714 109.117 110.984 99.3866L103.913 106.458C117.548 120.093 139.656 120.093 153.291 106.458L146.22 99.3866ZM236.131 58.9731C222.463 45.3047 200.302 45.3047 186.634 58.9731L193.705 66.0441C203.468 56.281 219.297 56.281 229.06 66.0441L236.131 58.9731ZM159.582 183.243C149.819 193.006 133.99 193.006 124.227 183.243L117.156 190.314C130.824 203.982 152.985 203.982 166.653 190.314L159.582 183.243ZM242.314 114.653C255.982 100.985 255.982 78.8241 242.314 65.1558L235.243 72.2269C245.006 81.99 245.006 97.8191 235.243 107.582L242.314 114.653Z" fill="white" mask="url(#path-3-inside-2_103_129)"/>
<mask id="path-5-inside-3_103_129" fill="white">
<path fill-rule="evenodd" clip-rule="evenodd" d="M139.3 43.2132C127.584 31.4974 108.589 31.4974 96.8736 43.2132L21.2132 118.874C9.49747 130.589 9.49746 149.584 21.2132 161.3L26.6342 166.721C38.3499 178.437 57.3449 178.437 69.0606 166.721L109.851 125.931C121.326 114.456 139.93 114.456 151.405 125.931L153.624 128.15C161.133 135.659 172.571 137.596 182.134 132.978C197.609 125.505 201.082 104.995 188.93 92.8435L139.3 43.2132Z"/>
</mask>
<path fill-rule="evenodd" clip-rule="evenodd" d="M139.3 43.2132C127.584 31.4974 108.589 31.4974 96.8736 43.2132L21.2132 118.874C9.49747 130.589 9.49746 149.584 21.2132 161.3L26.6342 166.721C38.3499 178.437 57.3449 178.437 69.0606 166.721L109.851 125.931C121.326 114.456 139.93 114.456 151.405 125.931L153.624 128.15C161.133 135.659 172.571 137.596 182.134 132.978C197.609 125.505 201.082 104.995 188.93 92.8435L139.3 43.2132Z" fill="url(#paint2_linear_103_129)"/>
<path d="M139.3 43.2132L135.765 46.7487L139.3 43.2132ZM24.7487 122.409L100.409 46.7487L93.3381 39.6776L17.6777 115.338L24.7487 122.409ZM30.1697 163.185L24.7487 157.764L17.6777 164.836L23.0987 170.257L30.1697 163.185ZM72.5961 170.257L113.386 129.466L106.315 122.395L65.5251 163.185L72.5961 170.257ZM147.869 129.466L150.089 131.685L157.16 124.614L154.941 122.395L147.869 129.466ZM135.765 46.7487L185.395 96.3791L192.466 89.308L142.836 39.6776L135.765 46.7487ZM184.308 137.48C202.882 128.511 207.051 103.893 192.466 89.308L185.395 96.3791C195.113 106.097 192.335 122.499 179.959 128.475L184.308 137.48ZM150.089 131.685C159.102 140.698 172.83 143.023 184.308 137.48L179.959 128.475C172.312 132.169 163.165 130.62 157.16 124.614L150.089 131.685ZM113.386 129.466C122.909 119.944 138.347 119.944 147.869 129.466L154.941 122.395C141.513 108.968 119.743 108.968 106.315 122.395L113.386 129.466ZM23.0987 170.257C36.767 183.925 58.9278 183.925 72.5961 170.257L65.5251 163.185C55.762 172.949 39.9328 172.949 30.1697 163.185L23.0987 170.257ZM100.409 46.7487C110.172 36.9856 126.001 36.9856 135.765 46.7487L142.836 39.6776C129.167 26.0093 107.006 26.0093 93.3381 39.6776L100.409 46.7487ZM17.6777 115.338C4.00932 129.006 4.0093 151.167 17.6777 164.836L24.7487 157.764C14.9856 148.001 14.9856 132.172 24.7487 122.409L17.6777 115.338Z" fill="white" mask="url(#path-5-inside-3_103_129)"/>
<defs>
<linearGradient id="paint0_linear_103_129" x1="243.728" y1="88.2278" x2="86.1937" y2="157.813" gradientUnits="userSpaceOnUse">
<stop stop-color="#0E7DFF"/>
<stop offset="1" stop-color="#042B58"/>
</linearGradient>
<linearGradient id="paint1_linear_103_129" x1="243.728" y1="88.2278" x2="86.1937" y2="157.813" gradientUnits="userSpaceOnUse">
<stop stop-color="#0E7DFF"/>
<stop offset="1" stop-color="#042B58"/>
</linearGradient>
<linearGradient id="paint2_linear_103_129" x1="20.8877" y1="133.888" x2="189.412" y2="67.1995" gradientUnits="userSpaceOnUse">
<stop stop-color="#2D8DFE"/>
<stop offset="0.0263186" stop-color="#2C8CFE"/>
<stop offset="1" stop-color="#0075FF"/>
</linearGradient>
</defs>
</svg>
